<svg xmlns="http://www.w3.org/2000/svg" xmlns:xlink="http://www.w3.org/1999/xlink" width="500" zoomAndPan="magnify" viewBox="0 0 375 374.999991" height="500" preserveAspectRatio="xMidYMid meet" version="1.0"><defs><clipPath id="1ccbf67249"><path d="M 0 186 L 255 186 L 255 367.5 L 0 367.5 Z M 0 186 " clip-rule="nonzero"/></clipPath><clipPath id="e2ae8e016a"><path d="M 80 7.5 L 374 7.5 L 374 299 L 80 299 Z M 80 7.5 " clip-rule="nonzero"/></clipPath></defs><path fill="#015b01" d="M 255.085938 346.128906 C 254.773438 345.871094 254.460938 345.617188 254.148438 345.355469 C 254.136719 344.082031 254.144531 342.71875 254.183594 341.257812 C 254.523438 342.96875 254.820312 344.601562 255.085938 346.128906 " fill-opacity="1" fill-rule="nonzero"/><path fill="#015b01" d="M 374.804688 239.710938 C 374.804688 239.710938 363.449219 252.71875 355.359375 291.007812 C 347.554688 327.816406 331.03125 350.933594 267.085938 353.992188 C 268.101562 352.460938 269.152344 350.921875 270.222656 349.347656 C 272.433594 346.074219 274.625 342.578125 277.082031 339.226562 C 279.480469 335.84375 281.859375 332.332031 284.410156 328.941406 C 286.96875 325.613281 289.453125 322.160156 292.046875 318.921875 C 294.675781 315.722656 297.167969 312.421875 299.8125 309.472656 C 302.386719 306.464844 304.910156 303.582031 307.414062 300.960938 C 309.855469 298.242188 312.382812 295.9375 314.625 293.648438 C 316.9375 291.519531 319.074219 289.527344 321.070312 287.921875 C 323.03125 286.230469 324.863281 284.925781 326.351562 283.839844 C 329.371094 281.695312 331.257812 280.832031 331.257812 280.832031 L 330.953125 280.085938 C 330.953125 280.085938 328.859375 280.769531 325.601562 282.617188 C 323.941406 283.550781 321.945312 284.710938 319.777344 286.1875 C 317.570312 287.613281 315.203125 289.398438 312.613281 291.292969 C 310.101562 293.34375 307.273438 295.445312 304.535156 297.894531 C 301.691406 300.316406 298.800781 302.933594 295.863281 305.714844 C 292.847656 308.433594 289.984375 311.4375 286.960938 314.445312 C 283.964844 317.417969 281.082031 320.644531 278.101562 323.742188 C 275.152344 326.90625 272.371094 330.1875 269.542969 333.34375 C 267.234375 335.898438 265.121094 338.515625 263.003906 341.054688 C 262.21875 336.949219 261.195312 332.28125 259.863281 327.183594 C 261.480469 317 264.871094 305.035156 271.648438 293.253906 C 273.582031 289.890625 275.796875 286.539062 278.320312 283.246094 C 288.785156 269.609375 304.644531 257.027344 328.574219 248.769531 C 332.582031 247.386719 336.824219 246.128906 341.304688 245.003906 C 351.242188 242.503906 362.367188 240.683594 374.804688 239.710938 " fill-opacity="1" fill-rule="nonzero"/><path fill="#49a739" d="M 254.183594 341.257812 C 254.144531 342.71875 254.136719 344.082031 254.148438 345.355469 C 254.460938 345.617188 254.773438 345.871094 255.085938 346.128906 C 254.820312 344.601562 254.523438 342.96875 254.183594 341.257812 " fill-opacity="1" fill-rule="nonzero"/><g clip-path="url(#1ccbf67249)"><path fill="#015b01" d="M 254.148438 345.355469 C 252.71875 344.179688 251.277344 342.984375 249.824219 341.808594 C 249.292969 341.382812 248.769531 340.957031 248.238281 340.53125 C 242.21875 335.742188 236.28125 330.582031 229.832031 325.726562 C 223.445312 320.859375 217.082031 315.75 210.453125 310.914062 C 203.777344 306.210938 197.253906 301.238281 190.609375 296.773438 C 189.820312 296.238281 189.03125 295.710938 188.25 295.179688 C 182.386719 291.191406 176.710938 287.230469 170.902344 283.710938 C 164.421875 279.589844 158.097656 275.75 151.941406 272.261719 C 145.953125 268.683594 139.929688 265.785156 134.515625 262.871094 C 130.632812 261.03125 126.96875 259.257812 123.527344 257.722656 C 122.09375 257.082031 120.703125 256.480469 119.347656 255.9375 C 114.773438 253.945312 110.640625 252.519531 107.210938 251.363281 C 100.472656 249.097656 96.332031 248.582031 96.332031 248.582031 L 96.03125 250.078125 C 96.03125 250.078125 99.859375 251 106.25 253.914062 C 109.421875 255.410156 113.292969 257.175781 117.550781 259.628906 C 121.851562 261.894531 126.542969 264.835938 131.621094 267.976562 C 136.621094 271.429688 142.15625 274.816406 147.667969 279.003906 C 153.28125 282.988281 159.011719 287.449219 164.890625 292.132812 C 170.875 296.679688 176.703125 301.917969 182.75 306.945312 C 188.742188 312.042969 194.605469 317.582031 200.5625 322.863281 C 206.53125 328.265625 212.230469 333.945312 217.902344 339.386719 C 223.6875 344.753906 229.027344 350.472656 234.316406 355.78125 C 236.886719 358.324219 239.382812 360.808594 241.832031 363.304688 C 221.984375 366.152344 204.347656 367.519531 188.613281 367.519531 C 109.027344 367.519531 77.964844 332.582031 54.796875 277.6875 C 25.988281 209.273438 0.160156 189.117188 0.160156 189.117188 C 16.375 187.289062 31.570312 186.4375 45.804688 186.4375 C 59.578125 186.4375 72.453125 187.238281 84.492188 188.730469 C 87.078125 189.050781 89.625 189.402344 92.132812 189.785156 C 121.792969 194.316406 146.117188 203.148438 166.070312 214.523438 C 206.25 237.414062 228.695312 270.589844 241.21875 299.578125 C 245.5625 309.632812 248.714844 319.1875 250.992188 327.632812 C 252.335938 332.597656 253.378906 337.179688 254.183594 341.257812 C 254.144531 342.71875 254.136719 344.082031 254.148438 345.355469 " fill-opacity="1" fill-rule="nonzero"/></g><path fill="#015b01" d="M 255.085938 346.128906 C 254.773438 345.871094 254.460938 345.617188 254.148438 345.355469 C 254.136719 344.082031 254.144531 342.71875 254.183594 341.257812 C 254.523438 342.96875 254.820312 344.601562 255.085938 346.128906 " fill-opacity="1" fill-rule="nonzero"/><path fill="#015b01" d="M 201.953125 161.464844 C 198.449219 160.472656 202.828125 157.078125 196.152344 158.394531 C 189.476562 159.707031 190.570312 161.347656 188.273438 158.0625 C 185.976562 154.785156 188.292969 153.6875 183.960938 153.578125 C 179.632812 153.472656 181.273438 153.796875 177.332031 151.828125 C 173.394531 149.855469 171.753906 148.984375 168.910156 149.96875 C 166.0625 150.953125 168.144531 149.640625 164.3125 151.390625 C 160.484375 153.140625 162.453125 157.410156 164.3125 154.894531 C 164.3125 154.894531 169.347656 153.796875 171.644531 154.894531 C 173.941406 155.988281 171.644531 153.90625 173.941406 155.988281 C 176.238281 158.0625 176.789062 159.046875 179.414062 159.597656 C 182.039062 160.144531 179.851562 160.910156 182.695312 160.691406 C 185.539062 160.472656 186.632812 157.265625 186.960938 160.730469 C 187.289062 164.195312 184.007812 163.535156 188.496094 165.503906 C 192.976562 167.472656 190.136719 169.226562 192.867188 168.238281 C 195.605469 167.253906 191.121094 163.316406 196.808594 165.722656 C 202.496094 168.128906 201.511719 166.160156 201.953125 164.957031 C 202.386719 163.753906 205.453125 162.457031 201.953125 161.464844 " fill-opacity="1" fill-rule="nonzero"/><path fill="#015b01" d="M 205.394531 163.042969 C 203.265625 162.988281 203.265625 164.300781 203.265625 164.300781 C 203.007812 164.941406 203.699219 166.109375 204.902344 166.269531 C 206.105469 166.433594 206.101562 166 206.101562 166 C 207.894531 164.6875 206.601562 165.941406 208.019531 166 C 209.445312 166.050781 209.007812 164.246094 208.019531 163.039062 C 207.039062 161.835938 207.527344 163.097656 205.394531 163.042969 " fill-opacity="1" fill-rule="nonzero"/><g clip-path="url(#e2ae8e016a)"><path fill="#015b01" d="M 357.058594 113.644531 C 355.015625 117.144531 352.539062 116.121094 350.785156 116.710938 C 349.035156 117.292969 345.675781 113.644531 348.011719 112.769531 C 350.347656 111.894531 355.960938 109.753906 357.058594 106.644531 C 357.152344 106.367188 357.285156 106.101562 357.433594 105.847656 C 358.175781 107.863281 358.875 109.90625 359.527344 111.96875 C 358.46875 112.25 357.566406 112.769531 357.058594 113.644531 Z M 361.585938 96.917969 C 354.210938 79.484375 343.660156 63.832031 330.214844 50.394531 C 316.773438 36.949219 301.121094 26.394531 283.6875 19.023438 C 265.640625 11.390625 246.472656 7.515625 226.710938 7.515625 C 206.953125 7.515625 187.78125 11.390625 169.734375 19.023438 C 152.300781 26.394531 136.648438 36.949219 123.203125 50.394531 C 109.761719 63.832031 99.207031 79.484375 91.835938 96.917969 C 84.199219 114.964844 80.332031 134.132812 80.332031 153.898438 C 80.332031 162.652344 81.089844 171.292969 82.601562 179.765625 C 85.101562 180.046875 87.578125 180.367188 90.035156 180.710938 C 88.332031 172.027344 87.445312 163.066406 87.445312 153.898438 C 87.445312 142.488281 88.824219 131.390625 91.421875 120.777344 C 91.542969 120.84375 91.664062 120.90625 91.773438 120.976562 C 94.507812 122.617188 91.449219 125.789062 94.179688 130.714844 C 96.921875 135.636719 96.042969 133.886719 97.191406 140.34375 C 98.332031 146.792969 100.3125 146.792969 102.71875 149.203125 C 105.125 151.609375 106.875 156.3125 105.5625 148.109375 C 104.246094 139.902344 100.855469 140.015625 98.230469 133.992188 C 95.605469 127.980469 98.449219 127.867188 101.078125 127.867188 C 103.703125 127.867188 103.589844 136.070312 109.9375 145.480469 C 116.285156 154.890625 112.894531 151.390625 112.671875 155.722656 C 112.453125 160.054688 118.035156 160.582031 122.300781 165.941406 C 126.566406 171.304688 131.273438 168.019531 135.210938 167.363281 C 139.148438 166.707031 138.710938 168.566406 143.089844 174.367188 C 147.464844 180.167969 146.152344 176.117188 150.636719 177.539062 C 155.125 178.960938 155.125 183.886719 158.40625 186.402344 C 161.6875 188.914062 161.359375 191.328125 167.265625 191.761719 C 173.175781 192.199219 169.894531 188.042969 172.738281 188.480469 C 175.585938 188.914062 173.835938 190.890625 175.804688 194.824219 C 177.769531 198.765625 173.613281 200.515625 170.332031 206.640625 C 170.289062 206.71875 170.246094 206.796875 170.203125 206.878906 C 187.9375 216.964844 203.578125 229.640625 216.875 244.722656 C 232.359375 262.292969 242.933594 281.15625 250.15625 298.414062 C 253.53125 297.878906 256.878906 297.214844 260.199219 296.433594 C 261.535156 293.59375 263.03125 290.738281 264.714844 287.890625 C 259.386719 289.40625 253.929688 290.609375 248.363281 291.484375 C 250.378906 284.621094 246.367188 277.300781 251.953125 274.695312 C 258.515625 271.632812 260.488281 267.691406 263.769531 266.597656 C 267.050781 265.503906 264.644531 262.441406 267.269531 247.34375 C 269.898438 232.246094 277.554688 236.402344 276.023438 229.839844 C 274.488281 223.273438 271.207031 227.207031 269.234375 222.394531 C 267.269531 217.582031 264.207031 219.550781 256.328125 217.800781 C 248.449219 216.050781 248.449219 212.332031 241.230469 211.238281 C 234.011719 210.140625 241.882812 205.113281 238.820312 203.140625 C 235.757812 201.167969 236.417969 195.484375 230.726562 194.824219 C 225.035156 194.167969 220.441406 191.761719 215.625 188.699219 C 210.8125 185.636719 210.59375 180.167969 201.84375 183.011719 C 193.085938 185.855469 196.152344 181.257812 189.367188 177.757812 C 182.582031 174.257812 179.304688 189.355469 176.675781 187.59375 C 174.050781 185.835938 171.863281 184.542969 167.707031 186.949219 C 163.546875 189.355469 164.425781 184.542969 161.359375 181.042969 C 158.296875 177.539062 162.890625 171.414062 160.269531 169.007812 C 157.640625 166.601562 156.109375 169.664062 153.699219 163.753906 C 151.292969 157.847656 156.546875 156.972656 156.328125 153.898438 C 156.109375 150.824219 153.265625 150.847656 148.015625 155.875 C 142.761719 160.910156 144.511719 162.660156 135.542969 160.253906 C 126.566406 157.847656 135.542969 156.097656 133.128906 148.214844 C 130.722656 140.34375 130.945312 138.152344 140.789062 133.777344 C 150.636719 129.398438 151.292969 135.746094 154.578125 131.371094 C 157.859375 126.992188 160.046875 131.148438 166.394531 129.398438 C 172.738281 127.648438 169.671875 136.183594 172.519531 143.625 C 175.363281 151.0625 175.144531 143.839844 174.925781 138.371094 C 174.707031 132.898438 174.707031 130.714844 179.027344 124.148438 C 183.347656 117.582031 187.621094 119.117188 189.367188 112.328125 C 191.121094 105.550781 192.433594 109.707031 196.585938 102.703125 C 200.746094 95.699219 202.28125 99.859375 206.875 98.546875 C 211.46875 97.234375 203.808594 94.605469 211.03125 89.792969 C 218.25 84.976562 216.941406 88.917969 215.578125 92.421875 C 214.214844 95.925781 219.347656 97.453125 222.410156 92.421875 C 225.472656 87.382812 229.851562 89.792969 230.726562 86.859375 C 231.605469 83.925781 227.007812 85.195312 224.441406 81.261719 C 221.882812 77.320312 227.222656 79.070312 234.011719 74.914062 C 240.789062 70.757812 239.917969 76.007812 237.945312 77.539062 C 235.976562 79.070312 235.539062 82.570312 242.542969 85.636719 C 249.546875 88.699219 248.234375 85.636719 249.105469 80.605469 C 249.980469 75.570312 241.445312 75.789062 246.261719 71.195312 C 251.078125 66.601562 247.574219 67.910156 239.699219 61.128906 C 231.820312 54.347656 240.574219 50.628906 236.851562 50.84375 C 233.132812 51.0625 232.035156 55.441406 228.101562 51.722656 C 224.160156 47.996094 219.125 44.5 215.578125 44.5 C 212.03125 44.5 207.09375 55 210.15625 59.378906 C 213.21875 63.753906 209.0625 60.90625 203.375 62.21875 C 197.683594 63.535156 199.4375 68.570312 198.125 76.007812 C 196.808594 83.445312 194.839844 75.132812 194.402344 68.128906 C 193.964844 61.128906 194.839844 62.660156 190.898438 62.003906 C 186.960938 61.347656 187.621094 59.160156 181.710938 54.347656 C 175.804688 49.53125 180.832031 51.9375 185.429688 45.777344 C 190.027344 39.609375 191.558594 42.3125 200.304688 41.433594 C 209.0625 40.558594 205.78125 47.125 210.8125 43.183594 C 215.84375 39.246094 201.84375 37.714844 210.8125 33.335938 C 219.789062 28.960938 215.625 27.648438 224.441406 27.429688 C 233.257812 27.210938 227.445312 28.960938 224.441406 33.121094 C 221.445312 37.277344 219.125 34.652344 218.910156 37.277344 C 218.691406 39.90625 223.722656 37.277344 224.441406 38.8125 C 225.164062 40.339844 224.378906 39.90625 222.847656 41.871094 C 221.316406 43.839844 233.859375 46.753906 239.773438 45.445312 C 245.675781 44.132812 241.300781 41.871094 243.492188 38.957031 C 245.675781 36.039062 249.472656 37.058594 251.660156 34.722656 C 253.847656 32.390625 247.863281 33.480469 245.019531 29.546875 C 242.175781 25.609375 243.125 24.660156 238.96875 22.542969 C 234.808594 20.425781 238.601562 23.054688 233.789062 17.144531 C 233.109375 16.308594 232.6875 15.511719 232.464844 14.75 C 244.054688 15.222656 255.28125 17.117188 265.980469 20.265625 C 266.460938 20.992188 266.769531 21.707031 266.828125 22.398438 C 267.269531 27.429688 272.519531 23.710938 271.425781 26.996094 C 270.328125 30.277344 262.671875 30.714844 264.859375 37.277344 C 267.050781 43.839844 271.644531 42.746094 272.957031 47.78125 C 274.269531 52.808594 274.890625 57.628906 276.222656 54.125 C 277.554688 50.628906 276.238281 45.816406 281.929688 42.96875 C 287.617188 40.121094 287.617188 35.527344 291.339844 36.621094 C 294.421875 37.53125 294.65625 41.226562 302.246094 36.945312 C 323.527344 50.738281 340.816406 70.171875 352 93.113281 C 351.574219 93.132812 351.125 93.125 350.640625 93.078125 C 341.886719 92.199219 339.042969 89.898438 339.042969 93.128906 C 339.042969 96.355469 344.507812 92.855469 340.136719 98.761719 C 335.757812 104.671875 335.757812 100.953125 339.042969 106.644531 C 342.320312 112.328125 344.945312 108.394531 344.945312 113.644531 C 344.945312 118.898438 344.507812 118.675781 340.792969 121.960938 C 337.074219 125.242188 336.332031 123.929688 336.703125 128.742188 C 337.074219 133.554688 341.230469 131.148438 334.003906 134.652344 C 326.785156 138.152344 324.820312 147.339844 321.972656 151.5 C 319.128906 155.65625 323.726562 150.847656 321.972656 158.0625 C 320.222656 165.285156 315.847656 172.941406 319.566406 177.757812 C 323.289062 182.574219 324.597656 177.976562 325.914062 184.980469 C 327.226562 191.984375 332.476562 194.167969 337.074219 198.765625 C 341.664062 203.359375 340.570312 202.265625 346.042969 200.515625 C 351.511719 198.765625 346.796875 199.445312 353.046875 200.296875 C 354.875 200.546875 356.578125 200.421875 358.113281 200.050781 C 353.449219 213.308594 346.828125 225.652344 338.59375 236.734375 C 341.976562 235.867188 345.441406 235.09375 348.996094 234.402344 C 353.886719 226.992188 358.09375 219.132812 361.585938 210.878906 C 369.21875 192.828125 373.089844 173.660156 373.089844 153.898438 C 373.089844 134.132812 369.21875 114.964844 361.585938 96.917969 " fill-opacity="1" fill-rule="nonzero"/></g></svg>